<svg width="26" height="24" viewBox="0 0 26 24" fill="none" xmlns="http://www.w3.org/2000/svg">
<path d="M25.7459 12L22.9573 8.81143L23.3459 4.59429L19.2202 3.65714L17.0602 0L13.1744 1.66857L9.28873 0L7.12873 3.64571L3.00301 4.57143L3.39158 8.8L0.603012 12L3.39158 15.1886L3.00301 19.4171L7.12873 20.3543L9.28873 24L13.1744 22.32L17.0602 23.9886L19.2202 20.3429L23.3459 19.4057L22.9573 15.1886L25.7459 12ZM10.1802 16.5829L7.46015 13.84C7.35421 13.7343 7.27015 13.6087 7.2128 13.4704C7.15545 13.3322 7.12593 13.184 7.12593 13.0343C7.12593 12.8846 7.15545 12.7364 7.2128 12.5981C7.27015 12.4599 7.35421 12.3343 7.46015 12.2286L7.54016 12.1486C7.98587 11.7029 8.7173 11.7029 9.16301 12.1486L11.003 14L16.8887 8.10286C17.3344 7.65714 18.0659 7.65714 18.5116 8.10286L18.5916 8.18286C19.0373 8.62857 19.0373 9.34857 18.5916 9.79429L11.8259 16.5829C11.3573 17.0286 10.6373 17.0286 10.1802 16.5829Z" fill="#2156E7"/>
<path d="M7.46015 13.84L10.1802 16.5828C10.6373 17.0286 11.3573 17.0286 11.8259 16.5828L18.5916 9.79427C19.0373 9.34855 19.0373 8.62855 18.5916 8.18284L18.5116 8.10284C18.0659 7.65713 17.3344 7.65713 16.8887 8.10284L11.003 14L9.16301 12.1486C8.7173 11.7028 7.98587 11.7028 7.54015 12.1486L7.46015 12.2286C7.35421 12.3343 7.27015 12.4599 7.2128 12.5981C7.15545 12.7364 7.12593 12.8846 7.12593 13.0343C7.12593 13.1839 7.15545 13.3322 7.2128 13.4704C7.27015 13.6087 7.35421 13.7343 7.46015 13.84Z" fill="#FCFCFC"/>
</svg>
