<svg width="19" height="24" viewBox="0 0 19 24" fill="none" xmlns="http://www.w3.org/2000/svg">
<path d="M11.435 0C11.435 0 12.2676 2.98172 12.2676 5.40084C12.2676 7.71871 10.7487 9.59775 8.4308 9.59775C6.10169 9.59775 4.34641 7.71871 4.34641 5.40084L4.38017 4.99578C2.10731 7.6962 0.74585 11.1955 0.74585 14.9986C0.74585 19.9719 4.77398 24 9.74726 24C14.7205 24 18.7487 19.9719 18.7487 14.9986C18.7487 8.9339 15.8345 3.5218 11.435 0ZM9.42095 20.6245C7.41814 20.6245 5.79789 19.0492 5.79789 17.0914C5.79789 15.2686 6.97932 13.9859 8.95963 13.5809C10.9512 13.1758 13.0103 12.2194 14.1579 10.6779C14.5968 12.1294 14.8218 13.6596 14.8218 15.2236C14.8218 18.2053 12.4027 20.6245 9.42095 20.6245Z" fill="#FF375C"/>
</svg>
